<svg width="512" height="512" viewBox="0 0 512 512" fill="none" xmlns="http://www.w3.org/2000/svg">
<rect width="512" height="512" fill="#3B5059"/>
<path d="M256 512C397.385 512 512 397.385 512 256C512 114.615 397.385 0 256 0C114.615 0 0 114.615 0 256C0 397.385 114.615 512 256 512Z" fill="#3B5059"/>
<path d="M352.688 189.688H403.664V420H352.688V189.688Z" fill="#69B0EE"/>
<path d="M271.124 230.468H322.1V420H271.124V230.468Z" fill="#F6C863"/>
<path d="M189.564 281.444H240.54V420H189.564V281.444Z" fill="#2CBFAE"/>
<path d="M108 337.52H158.976V420H108V337.52Z" fill="#EF5261"/>
<path d="M380.624 100.676L372.248 152.72L357.16 150.276L361.148 125.604L126.044 271.04L117.992 257.988L354.216 111.888L327.196 107.088L329.644 92L380.624 100.676Z" fill="#EEEFEE"/>
</svg>
